HIERARCHY
ROOT root
{
  OFFSET 0 90.5966 0
  CHANNELS 6 Xposition Yposition Zposition Zrotation Xrotation Yrotation
  JOINT torso_1
  {
    OFFSET 0 4.93189 -1.1181
    CHANNELS 6 Xposition Yposition Zposition Zrotation Xrotation Yrotation
    JOINT torso_2
    {
      OFFSET 0 5.45428 1.04046
      CHANNELS 6 Xposition Yposition Zposition Zrotation Xrotation Yrotation
      JOINT torso_3
      {
        OFFSET -9.96389e-18 5.81666 0.111686
        CHANNELS 6 Xposition Yposition Zposition Zrotation Xrotation Yrotation
        JOINT torso_4
        {
          OFFSET -1.07264e-17 6.3178 -0.430704
          CHANNELS 6 Xposition Yposition Zposition Zrotation Xrotation Yrotation
          JOINT torso_5
          {
            OFFSET -1.91593e-17 7.38567 -1.4624
            CHANNELS 6 Xposition Yposition Zposition Zrotation Xrotation Yrotation
            JOINT torso_6
            {
              OFFSET -2.45986e-17 9.22288 -0.888062
              CHANNELS 6 Xposition Yposition Zposition Zrotation Xrotation Yrotation
              JOINT torso_7
              {
                OFFSET -2.82008e-17 10.2464 1.53133
                CHANNELS 6 Xposition Yposition Zposition Zrotation Xrotation Yrotation
                JOINT neck_1
                {
                  OFFSET -1.25459e-17 4.64811 0.694664
                  CHANNELS 6 Xposition Yposition Zposition Zrotation Xrotation Yrotation
                  JOINT neck_2
                  {
                    OFFSET -1.75924e-17 4.68175 0.4096
                    CHANNELS 6 Xposition Yposition Zposition Zrotation Xrotation Yrotation
                    JOINT head
                    {
                      OFFSET -1.9515e-17 4.6908 0.74295
                      CHANNELS 6 Xposition Yposition Zposition Zrotation Xrotation Yrotation
                      End Site
                      {
                        OFFSET 0 0.1 0
                      }
                    }
                  }
                }
                JOINT l_shoulder
                {
                  OFFSET 1.19736 -7.38744 7.31601
                  CHANNELS 6 Xposition Yposition Zposition Zrotation Xrotation Yrotation
                  JOINT l_up_arm
                  {
                    OFFSET 12.5803 3.15559 -3.17425
                    CHANNELS 6 Xposition Yposition Zposition Zrotation Xrotation Yrotation
                    JOINT l_low_arm
                    {
                      OFFSET 28.3639 0.0580795 0.133078
                      CHANNELS 6 Xposition Yposition Zposition Zrotation Xrotation Yrotation
                      JOINT l_hand
                      {
                        OFFSET 23.5335 0.0481878 0.110415
                        CHANNELS 6 Xposition Yposition Zposition Zrotation Xrotation Yrotation
                        End Site
                        {
                          OFFSET 0.1 0 0
                        }
                      }
                    }
                  }
                }
                JOINT r_shoulder
                {
                  OFFSET -1.19736 -7.38743 7.31591
                  CHANNELS 6 Xposition Yposition Zposition Zrotation Xrotation Yrotation
                  JOINT r_up_arm
                  {
                    OFFSET -12.5803 3.15559 -3.17425
                    CHANNELS 6 Xposition Yposition Zposition Zrotation Xrotation Yrotation
                    JOINT r_low_arm
                    {
                      OFFSET -28.3639 0.0580795 0.133078
                      CHANNELS 6 Xposition Yposition Zposition Zrotation Xrotation Yrotation
                      JOINT r_hand
                      {
                        OFFSET -23.5335 0.0481876 0.110415
                        CHANNELS 6 Xposition Yposition Zposition Zrotation Xrotation Yrotation
                        End Site
                        {
                          OFFSET -0.1 0 0
                        }
                      }
                    }
                  }
                }
              }
            }
          }
        }
      }
    }
  }
  JOINT l_up_leg
  {
    OFFSET 8.96978 -4.08401 1.97395
    CHANNELS 6 Xposition Yposition Zposition Zrotation Xrotation Yrotation
    JOINT l_low_leg
    {
      OFFSET -0.827718 -37.6515 -0.63625
      CHANNELS 6 Xposition Yposition Zposition Zrotation Xrotation Yrotation
      JOINT l_foot
      {
        OFFSET -2.25899 -39.2341 -5.87393
        CHANNELS 6 Xposition Yposition Zposition Zrotation Xrotation Yrotation
        JOINT l_toes
        {
          OFFSET 0.756579 -9.59872 12.1348
          CHANNELS 6 Xposition Yposition Zposition Zrotation Xrotation Yrotation
          End Site
          {
            OFFSET 0 0 0.1
          }
        }
      }
    }
  }
  JOINT r_up_leg
  {
    OFFSET -8.96978 -4.08401 1.97395
    CHANNELS 6 Xposition Yposition Zposition Zrotation Xrotation Yrotation
    JOINT r_low_leg
    {
      OFFSET 0.827718 -37.6515 -0.63625
      CHANNELS 6 Xposition Yposition Zposition Zrotation Xrotation Yrotation
      JOINT r_foot
      {
        OFFSET 2.25899 -39.2341 -5.87393
        CHANNELS 6 Xposition Yposition Zposition Zrotation Xrotation Yrotation
        JOINT r_toes
        {
          OFFSET -0.756579 -9.59872 12.1348
          CHANNELS 6 Xposition Yposition Zposition Zrotation Xrotation Yrotation
          End Site
          {
            OFFSET 0 0 0.1
          }
        }
      }
    }
  }
}
MOTION
Frames: 5
Frame Time: 0.016667
-5.84189 90.9072 5.76729 1.98298 0.76441 5.48369 0 4.93189 -1.1181 1.26562 -0.100927 1.61165 0 5.45428 1.04046 0.656784 0.0607773 1.66256 -9.96389e-18 5.81666 0.111686 0.312314 0.895206 1.64313 -1.07264e-17 6.3178 -0.430704 -0.134813 2.15396 1.61196 -1.91593e-17 7.38567 -1.4624 -0.0931013 2.29601 1.51755 -2.45986e-17 9.22288 -0.888062 0.105452 2.53551 1.42436 -2.82008e-17 10.2464 1.53133 0.00437463 0.0789063 -0.00295397 -1.25459e-17 4.64811 0.694664 0.377302 1.41418 18.1172 -1.75924e-17 4.68175 0.4096 -1.54246 -2.9702 8.14407 -1.9515e-17 4.6908 0.74295 -3.84027 -0.940922 6.56828 1.19736 -7.38744 7.31601 10.886 -1.87094 0.973748 12.5803 3.15559 -3.17425 -23.5188 -30.4412 9.38062 28.3639 0.0580795 0.133078 1.03173 -0.0394225 -4.97891 23.5335 0.0481878 0.110415 2.91241 30.8321 -0.348778 -1.19736 -7.38743 7.31591 -6.12554 -1.58401 0.814711 -12.5803 3.15559 -3.17425 33.6307 -41.2683 4.0822 -28.3639 0.0580795 0.133078 -4.32552 -0.790699 21.3002 -23.5335 0.0481876 0.110415 1.83542 -2.16279 5.41463 8.96978 -4.08401 1.97395 -3.35151 -6.94807 -12.7829 -0.827718 -37.6515 -0.63625 -0.937902 3.50272 -0.0324763 -2.25899 -39.2341 -5.87393 -2.31713 4.43605 15.3245 0.756579 -9.59872 12.1348 4.96962e-17 -7.95139e-16 1.2424e-17 -8.96978 -4.08401 1.97395 2.54912 -3.66847 19.389 0.827718 -37.6515 -0.63625 0.321212 1.19929 0.0175723 2.25899 -39.2341 -5.87393 -1.45094 2.73909 -14.8289 -0.756579 -9.59872 12.1348 -4.00001e-16 -5.71354e-16 -1.27532e-14 
-5.8358 90.9254 5.7585 1.97622 0.779526 5.4354 0 4.93189 -1.1181 1.27931 -0.0989541 1.60933 0 5.45428 1.04046 0.669278 0.0660508 1.66052 -9.96389e-18 5.81666 0.111686 0.323311 0.903587 1.64096 -1.07264e-17 6.3178 -0.430704 -0.125621 2.16632 1.61003 -1.91593e-17 7.38567 -1.4624 -0.0874102 2.31072 1.51432 -2.45986e-17 9.22288 -0.888062 0.106863 2.55217 1.42018 -2.82008e-17 10.2464 1.53133 0.0040789 0.0786898 -0.00306401 -1.25459e-17 4.64811 0.694664 0.345094 1.44108 17.8565 -1.75924e-17 4.68175 0.4096 -1.52402 -2.95196 8.01617 -1.9515e-17 4.6908 0.74295 -3.82442 -0.961421 6.47629 1.19736 -7.38744 7.31601 10.8847 -1.92005 1.0046 12.5803 3.15559 -3.17425 -23.6291 -30.6968 9.36454 28.3639 0.0580795 0.133078 1.03082 -0.0393477 -4.9745 23.5335 0.0481878 0.110415 2.98796 31.0107 -0.425481 -1.19736 -7.38743 7.31591 -6.1564 -1.6186 0.785427 -12.5803 3.15559 -3.17425 33.7178 -41.3101 4.22089 -28.3639 0.0580795 0.133078 -4.30825 -0.784085 21.2113 -23.5335 0.0481876 0.110415 1.84329 -1.97844 5.50046 8.96978 -4.08401 1.97395 -3.34578 -6.99252 -12.7793 -0.827718 -37.6515 -0.63625 -0.941511 3.51619 -0.0324905 -2.25899 -39.2341 -5.87393 -2.33795 4.51731 15.3251 0.756579 -9.59872 12.1348 1.79786e-16 -7.91073e-16 8.35872e-18 -8.96978 -4.08401 1.97395 2.55408 -3.68592 19.4485 0.827718 -37.6515 -0.63625 0.315019 1.17616 0.0172969 2.25899 -39.2341 -5.87393 -1.42346 2.82306 -14.8237 -0.756579 -9.59872 12.1348 -1.98785e-16 -5.8393e-16 -1.27595e-14 
-5.8287 90.943 5.73757 1.95571 0.784737 5.3871 0 4.93189 -1.1181 1.31363 -0.0877906 1.59936 0 5.45428 1.04046 0.700513 0.080876 1.65329 -9.96389e-18 5.81666 0.111686 0.349445 0.920453 1.63362 -1.07264e-17 6.3178 -0.430704 -0.105177 2.18477 1.60306 -1.91593e-17 7.38567 -1.4624 -0.0766579 2.33217 1.50501 -2.45986e-17 9.22288 -0.888062 0.106577 2.57659 1.41039 -2.82008e-17 10.2464 1.53133 0.0034883 0.0784089 -0.00322487 -1.25459e-17 4.64811 0.694664 0.296374 1.45132 17.4037 -1.75924e-17 4.68175 0.4096 -1.51889 -2.93733 7.79523 -1.9515e-17 4.6908 0.74295 -3.83204 -0.977805 6.29301 1.19736 -7.38744 7.31601 10.843 -1.98368 1.03967 12.5803 3.15559 -3.17425 -23.8033 -31.039 9.35598 28.3639 0.0580795 0.133078 1.03427 -0.03963 -4.99115 23.5335 0.0481878 0.110415 3.13093 31.2783 -0.507795 -1.19736 -7.38743 7.31591 -6.19937 -1.66974 0.752435 -12.5803 3.15559 -3.17425 33.7901 -41.4138 4.37476 -28.3639 0.0580795 0.133078 -4.30132 -0.781439 21.1756 -23.5335 0.0481876 0.110415 1.89363 -1.80596 5.5754 8.96978 -4.08401 1.97395 -3.32573 -7.05074 -12.7806 -0.827718 -37.6515 -0.63625 -0.951932 3.5551 -0.0325267 -2.25899 -39.2341 -5.87393 -2.35292 4.58958 15.3254 0.756579 -9.59872 12.1348 3.8344e-16 -7.84709e-16 1.99455e-18 -8.96978 -4.08401 1.97395 2.57418 -3.71667 19.5214 0.827718 -37.6515 -0.63625 0.314362 1.17371 0.0172675 2.25899 -39.2341 -5.87393 -1.40347 2.91669 -14.8164 -0.756579 -9.59872 12.1348 -3.26436e-16 -5.77946e-16 -1.27535e-14 
-5.82461 90.9624 5.70843 1.93558 0.780582 5.33949 0 4.93189 -1.1181 1.3526 -0.0738811 1.58378 0 5.45428 1.04046 0.737244 0.0994529 1.64101 -9.96389e-18 5.81666 0.111686 0.380593 0.940354 1.62105 -1.07264e-17 6.3178 -0.430704 -0.0801465 2.20496 1.59074 -1.91593e-17 7.38567 -1.4624 -0.0632169 2.35626 1.49025 -2.45986e-17 9.22288 -0.888062 0.106082 2.60474 1.39521 -2.82008e-17 10.2464 1.53133 0.00263469 0.0781982 -0.00338823 -1.25459e-17 4.64811 0.694664 0.238726 1.40621 16.7045 -1.75924e-17 4.68175 0.4096 -1.50952 -2.92275 7.45565 -1.9515e-17 4.6908 0.74295 -3.84274 -0.971283 6.03558 1.19736 -7.38744 7.31601 10.7837 -2.04645 1.06917 12.5803 3.15559 -3.17425 -24.0116 -31.314 9.36409 28.3639 0.0580795 0.133078 1.04167 -0.0402405 -5.02696 23.5335 0.0481878 0.110415 3.27924 31.5176 -0.537949 -1.19736 -7.38743 7.31591 -6.24048 -1.72543 0.733601 -12.5803 3.15559 -3.17425 33.8534 -41.4806 4.52055 -28.3639 0.0580795 0.133078 -4.30286 -0.782025 21.1835 -23.5335 0.0481876 0.110415 1.95008 -1.75072 5.61053 8.96978 -4.08401 1.97395 -3.30327 -7.1124 -12.7789 -0.827718 -37.6515 -0.63625 -0.965622 3.60619 -0.0325636 -2.25899 -39.2341 -5.87393 -2.3641 4.67859 15.3238 0.756579 -9.59872 12.1348 5.21322e-17 -7.95063e-16 1.23479e-17 -8.96978 -4.08401 1.97395 2.59739 -3.7529 19.6009 0.827718 -37.6515 -0.63625 0.317628 1.18591 0.0174132 2.25899 -39.2341 -5.87393 -1.38633 3.02391 -14.8079 -0.756579 -9.59872 12.1348 -9.89051e-16 -5.46886e-16 -1.27224e-14 
-5.82261 90.9833 5.67211 1.91397 0.76582 5.31518 0 4.93189 -1.1181 1.38965 -0.0726095 1.56534 0 5.45428 1.04046 0.773663 0.110506 1.62548 -9.96389e-18 5.81666 0.111686 0.412458 0.956493 1.60541 -1.07264e-17 6.3178 -0.430704 -0.0533818 2.22751 1.57547 -1.91593e-17 7.38567 -1.4624 -0.0475833 2.38686 1.47264 -2.45986e-17 9.22288 -0.888062 0.107276 2.64187 1.37689 -2.82008e-17 10.2464 1.53133 0.00157241 0.0779397 -0.00352732 -1.25459e-17 4.64811 0.694664 0.165331 1.29707 15.6736 -1.75924e-17 4.68175 0.4096 -1.46641 -2.92191 6.95834 -1.9515e-17 4.6908 0.74295 -3.84894 -0.971039 5.66016 1.19736 -7.38744 7.31601 10.7018 -2.12122 1.10171 12.5803 3.15559 -3.17425 -24.2457 -31.6045 9.35227 28.3639 0.0580795 0.133078 1.05111 -0.0410259 -5.07263 23.5335 0.0481878 0.110415 3.47693 31.8485 -0.557509 -1.19736 -7.38743 7.31591 -6.26198 -1.78932 0.721052 -12.5803 3.15559 -3.17425 33.9377 -41.5663 4.66604 -28.3639 0.0580795 0.133078 -4.30941 -0.784529 21.2173 -23.5335 0.0481876 0.110415 1.97434 -1.64854 5.607 8.96978 -4.08401 1.97395 -3.27969 -7.17721 -12.7966 -0.827718 -37.6515 -0.63625 -0.982708 3.66997 -0.0325924 -2.25899 -39.2341 -5.87393 -2.37875 4.78086 15.3214 0.756579 -9.59872 12.1348 -2.79176e-16 -8.05416e-16 2.27013e-17 -8.96978 -4.08401 1.97395 2.62455 -3.79963 19.6552 0.827718 -37.6515 -0.63625 0.328821 1.22771 0.0179072 2.25899 -39.2341 -5.87393 -1.37496 3.13878 -14.7978 -0.756579 -9.59872 12.1348 -3.3618e-16 -5.7749e-16 -1.27531e-14 
